<svg width="107" height="31" viewBox="0 0 107 31" fill="none" xmlns="http://www.w3.org/2000/svg">
<g id="Frame 5">
<g id="Bonus pay">
<path d="M0.537109 20.665V4.1832H7.81266C8.94284 4.1832 9.90036 4.34802 10.6852 4.67765C11.4701 4.99159 12.0587 5.45465 12.4511 6.06684C12.8592 6.66332 13.0633 7.38538 13.0633 8.23302C13.0633 9.17484 12.8278 9.96754 12.3569 10.6111C10.8792 12.7003 12.6026 12.0202 13.4871 13.7427C13.7854 14.3078 13.9345 14.9513 13.9345 15.6734C13.9345 16.5053 13.7932 17.2352 13.5107 17.8631C13.2281 18.4753 12.82 18.9933 12.2863 19.4171C11.7526 19.8409 11.1247 20.1549 10.4027 20.3589C9.6963 20.563 8.91145 20.665 8.04812 20.665H0.537109ZM4.30439 17.3216H7.90684C8.34636 17.3216 8.71524 17.2509 9.01348 17.1097C9.32742 16.9684 9.57072 16.7643 9.74339 16.4975C9.91606 16.2149 10.0024 15.8774 10.0024 15.485C10.0024 15.124 9.90821 14.8179 9.71984 14.5668C9.54718 14.3156 9.29603 14.1272 8.96639 14.0017C8.63675 13.8604 8.24433 13.7898 7.78912 13.7898H4.30439V17.3216ZM4.30439 10.7995H7.24757C7.65569 10.7995 8.00103 10.7367 8.28357 10.6111C8.58181 10.4698 8.80157 10.2815 8.94284 10.046C9.09981 9.79487 9.1783 9.49663 9.1783 9.15129C9.1783 8.64899 9.00563 8.25656 8.6603 7.97402C8.31496 7.67578 7.79696 7.52665 7.1063 7.52665H4.30439V10.7995Z" fill="#00326D"/>
<path d="M21.0985 20.665C19.7957 20.665 18.6341 20.3825 17.6138 19.8174C16.6092 19.2523 15.8086 18.4831 15.2122 17.5099C14.6314 16.5367 14.341 15.4222 14.341 14.1665C14.341 12.9107 14.6314 11.7962 15.2122 10.823C15.8086 9.84981 16.6092 9.08066 17.6138 8.51556C18.6341 7.95047 19.7957 7.66793 21.0985 7.66793C22.4014 7.66793 23.5551 7.95047 24.5597 8.51556C25.58 9.08066 26.3806 9.84981 26.9613 10.823C27.5421 11.7962 27.8325 12.9107 27.8325 14.1665C27.8325 15.4222 27.5421 16.5367 26.9613 17.5099C26.3806 18.4831 25.58 19.2523 24.5597 19.8174C23.5551 20.3825 22.4014 20.665 21.0985 20.665ZM21.0985 17.4158C21.6636 17.4158 22.1659 17.2745 22.6054 16.9919C23.0449 16.7094 23.3903 16.3248 23.6414 15.8382C23.8926 15.3516 24.0103 14.7944 23.9946 14.1665C24.0103 13.5386 23.8926 12.9814 23.6414 12.4947C23.3903 11.9924 23.0449 11.6 22.6054 11.3175C22.1659 11.0349 21.6636 10.8937 21.0985 10.8937C20.5334 10.8937 20.0233 11.0349 19.5681 11.3175C19.1286 11.6 18.7832 11.9924 18.5321 12.4947C18.2809 12.9814 18.1632 13.5386 18.1789 14.1665C18.1632 14.7944 18.2809 15.3516 18.5321 15.8382C18.7832 16.3248 19.1286 16.7094 19.5681 16.9919C20.0233 17.2745 20.5334 17.4158 21.0985 17.4158Z" fill="#00326D"/>
<path d="M28.3554 20.665V8.16238H31.9343L31.2986 10.9878C31.4713 10.4227 31.7774 9.9126 32.2169 9.45738C32.6721 8.98647 33.2136 8.60975 33.8415 8.3272C34.4694 8.04465 35.1287 7.90338 35.8193 7.90338C36.7612 7.90338 37.5539 8.09959 38.1974 8.49202C38.841 8.86875 39.3276 9.44169 39.6573 10.2108C39.9869 10.9643 40.1517 11.8904 40.1517 12.9892V20.665H36.3609V13.2953C36.3609 12.793 36.2903 12.377 36.149 12.0474C36.0077 11.7177 35.788 11.4744 35.4897 11.3175C35.2072 11.1448 34.854 11.0663 34.4302 11.082C34.1005 11.082 33.7944 11.137 33.5119 11.2468C33.2293 11.341 32.986 11.4901 32.782 11.6942C32.5779 11.8826 32.4131 12.1023 32.2875 12.3535C32.1776 12.6046 32.1227 12.8793 32.1227 13.1776V20.665H30.2626C29.8231 20.665 29.4464 20.665 29.1324 20.665C28.8185 20.665 28.5595 20.665 28.3554 20.665Z" fill="#00326D"/>
<path d="M45.4443 20.924C44.5182 20.924 43.7255 20.7278 43.0662 20.3354C42.4226 19.9273 41.9203 19.3465 41.5593 18.593C41.214 17.8396 41.0413 16.937 41.0413 15.8853V8.16238H44.8321V15.3673C44.8321 15.8696 44.9106 16.3013 45.0676 16.6623C45.2245 17.0233 45.46 17.3059 45.7739 17.5099C46.0879 17.6983 46.4646 17.7925 46.9041 17.7925C47.2338 17.7925 47.532 17.7375 47.7989 17.6277C48.0814 17.5178 48.3169 17.3687 48.5052 17.1803C48.7093 16.9762 48.8662 16.7486 48.9761 16.4975C49.086 16.2306 49.1409 15.9402 49.1409 15.6263V8.16238H52.9318V20.665H49.3764L49.9179 17.816C49.7296 18.4125 49.4156 18.9462 48.9761 19.4171C48.5366 19.8723 48.0108 20.2412 47.3986 20.5238C46.7864 20.7906 46.135 20.924 45.4443 20.924Z" fill="#00326D"/>
<path d="M58.9343 20.9005C57.7099 20.9005 56.6268 20.7043 55.685 20.3118C54.7589 19.9194 54.0211 19.3936 53.4717 18.7343L55.7557 16.7565C56.2423 17.2431 56.7917 17.6041 57.4038 17.8396C58.016 18.0593 58.5968 18.1692 59.1462 18.1692C59.366 18.1692 59.5622 18.1457 59.7348 18.0986C59.9075 18.0515 60.0488 17.9887 60.1587 17.9102C60.2842 17.816 60.3784 17.714 60.4412 17.6041C60.504 17.4785 60.5354 17.3373 60.5354 17.1803C60.5354 16.8664 60.3941 16.6231 60.1116 16.4504C59.9703 16.3719 59.7348 16.2777 59.4052 16.1678C59.0756 16.058 58.6518 15.9324 58.1338 15.7911C57.396 15.6028 56.7524 15.383 56.203 15.1318C55.6693 14.865 55.2298 14.5589 54.8845 14.2136C54.5705 13.8839 54.3272 13.5229 54.1546 13.1305C53.9819 12.7224 53.8956 12.2671 53.8956 11.7648C53.8956 11.1841 54.029 10.6582 54.2958 10.1873C54.5784 9.71638 54.9473 9.30826 55.4025 8.96293C55.8734 8.61759 56.4071 8.35859 57.0036 8.18593C57.6157 7.99756 58.2436 7.90338 58.8872 7.90338C59.5779 7.90338 60.2371 7.98187 60.865 8.13884C61.4929 8.29581 62.0737 8.51557 62.6074 8.79811C63.1568 9.08066 63.6434 9.41814 64.0672 9.81057L62.0894 12.0238C61.8068 11.757 61.4851 11.5215 61.124 11.3175C60.7787 11.0977 60.4177 10.9251 60.0409 10.7995C59.6642 10.6739 59.3189 10.6111 59.0049 10.6111C58.7695 10.6111 58.5576 10.6347 58.3692 10.6817C58.1965 10.7131 58.0474 10.7759 57.9218 10.8701C57.7963 10.9486 57.7021 11.0506 57.6393 11.1762C57.5765 11.2861 57.5451 11.4195 57.5451 11.5765C57.5451 11.7334 57.5844 11.8826 57.6628 12.0238C57.757 12.1651 57.8826 12.2828 58.0396 12.377C58.1965 12.4712 58.4477 12.5811 58.793 12.7067C59.1384 12.8165 59.6093 12.9578 60.2058 13.1305C60.9435 13.3345 61.5792 13.5621 62.1129 13.8133C62.6466 14.0644 63.0705 14.3627 63.3844 14.708C63.6355 14.9749 63.8239 15.2888 63.9495 15.6498C64.0751 15.9952 64.1378 16.3719 64.1378 16.78C64.1378 17.5806 63.9102 18.2948 63.455 18.9227C63.0155 19.5348 62.4033 20.0215 61.6185 20.3825C60.8336 20.7278 59.9389 20.9005 58.9343 20.9005Z" fill="#00326D"/>
<path d="M65.0631 25.8215V8.13884H68.642L68.0769 10.7288C68.1868 10.2108 68.4536 9.73993 68.8774 9.31611C69.3012 8.89229 69.8349 8.55481 70.4785 8.30365C71.1378 8.03681 71.8285 7.90338 72.5505 7.90338C73.6179 7.90338 74.5676 8.18593 75.3995 8.75102C76.2315 9.30041 76.8829 10.0617 77.3538 11.0349C77.8404 11.9924 78.0837 13.1069 78.0837 14.3784C78.0837 15.6341 77.8404 16.7486 77.3538 17.7218C76.8829 18.6951 76.2236 19.4642 75.376 20.0293C74.544 20.5787 73.5865 20.8534 72.5034 20.8534C71.7971 20.8534 71.1221 20.72 70.4785 20.4531C69.8349 20.1863 69.2934 19.8252 68.8539 19.37C68.4144 18.9148 68.124 18.4204 67.9827 17.8867L68.8539 25.8215H65.0631ZM71.5852 17.6748C72.1503 17.6748 72.6447 17.5413 73.0685 17.2745C73.4923 16.9919 73.822 16.6074 74.0574 16.1208C74.2929 15.6341 74.4106 15.0534 74.4106 14.3784C74.4106 13.7191 74.2929 13.1462 74.0574 12.6596C73.822 12.1573 73.4923 11.7727 73.0685 11.5058C72.6604 11.2233 72.166 11.082 71.5852 11.082C71.0044 11.082 70.5021 11.2154 70.0782 11.4823C69.6544 11.7491 69.3248 12.1337 69.0893 12.636C68.8539 13.1383 68.7362 13.7191 68.7362 14.3784C68.7362 15.0534 68.8539 15.6341 69.0893 16.1208C69.3248 16.6074 69.6544 16.9919 70.0782 17.2745C70.5021 17.5413 71.0044 17.6748 71.5852 17.6748Z" fill="#00326D"/>
<path d="M84.5321 20.8769C83.4804 20.8769 82.5386 20.6022 81.7067 20.0528C80.8904 19.4878 80.239 18.7186 79.7524 17.7454C79.2658 16.7565 79.0225 15.642 79.0225 14.4019C79.0225 13.1305 79.2658 12.0081 79.7524 11.0349C80.239 10.0617 80.9061 9.30041 81.7537 8.75102C82.6014 8.18593 83.5667 7.90338 84.6498 7.90338C85.2463 7.90338 85.7879 7.98972 86.2745 8.16238C86.7768 8.33505 87.2163 8.57835 87.593 8.89229C87.9698 9.19053 88.2915 9.54372 88.5584 9.95184C88.8252 10.3443 89.0214 10.7681 89.147 11.2233L88.37 8.16238H92.1138V20.665H88.2994L89.147 17.6277C89.0214 18.0672 88.8174 18.4831 88.5348 18.8756C88.2523 19.268 87.907 19.6133 87.4988 19.9116C87.0907 20.2098 86.6355 20.4453 86.1332 20.6179C85.6309 20.7906 85.0972 20.8769 84.5321 20.8769ZM85.5681 17.6983C86.1489 17.6983 86.6512 17.5649 87.075 17.298C87.4988 17.0312 87.8285 16.6544 88.0639 16.1678C88.2994 15.6655 88.4171 15.0769 88.4171 14.4019C88.4171 13.727 88.2994 13.1462 88.0639 12.6596C87.8285 12.1573 87.4988 11.7727 87.075 11.5058C86.6512 11.2233 86.1489 11.082 85.5681 11.082C85.003 11.082 84.5086 11.2233 84.0847 11.5058C83.6766 11.7727 83.3548 12.1573 83.1194 12.6596C82.8839 13.1462 82.7662 13.727 82.7662 14.4019C82.7662 15.0769 82.8839 15.6655 83.1194 16.1678C83.3548 16.6544 83.6766 17.0312 84.0847 17.298C84.5086 17.5649 85.003 17.6983 85.5681 17.6983Z" fill="#00326D"/>
<path d="M95.6639 26.0805L98.5129 19.37L92.5324 8.16238H96.7941L99.4312 14.449C99.5725 14.763 99.7059 15.1004 99.8315 15.4615C99.9571 15.8225 100.051 16.1678 100.114 16.4975L99.596 16.8036C99.6902 16.5681 99.7922 16.2777 99.9021 15.9324C100.028 15.5714 100.161 15.1868 100.302 14.7787L102.61 8.16238H106.895L101.574 20.665L99.4077 26.0805H95.6639Z" fill="#00326D"/>
</g>
</g>
</svg>
