<svg width="24" height="24" viewBox="0 0 24 24" fill="none" xmlns="http://www.w3.org/2000/svg">
<g id="clarity:coin-bag-line" clip-path="url(#clip0_2079_405)">
<path id="Vector" d="M14.3997 19.3333C14.3997 19.1565 14.3295 18.9869 14.2045 18.8619C14.0795 18.7369 13.9099 18.6666 13.7331 18.6666H9.73307C9.55626 18.6666 9.38669 18.7369 9.26167 18.8619C9.13664 18.9869 9.06641 19.1565 9.06641 19.3333C9.06641 19.5101 9.13664 19.6797 9.26167 19.8047C9.38669 19.9297 9.55626 20 9.73307 20H13.7331C13.9099 20 14.0795 19.9297 14.2045 19.8047C14.3295 19.6797 14.3997 19.5101 14.3997 19.3333Z" fill="url(#paint0_linear_2079_405)"/>
<path id="Vector_2" d="M15.027 16H11.027C10.8502 16 10.6806 16.0702 10.5556 16.1953C10.4306 16.3203 10.3604 16.4899 10.3604 16.6667C10.3604 16.8435 10.4306 17.013 10.5556 17.1381C10.6806 17.2631 10.8502 17.3333 11.027 17.3333H15.027C15.2038 17.3333 15.3734 17.2631 15.4984 17.1381C15.6234 17.013 15.6937 16.8435 15.6937 16.6667C15.6937 16.4899 15.6234 16.3203 15.4984 16.1953C15.3734 16.0702 15.2038 16 15.027 16Z" fill="url(#paint1_linear_2079_405)"/>
<path id="Vector_3" d="M14.6667 21.3334H10.6667C10.4899 21.3334 10.3203 21.4036 10.1953 21.5286C10.0702 21.6537 10 21.8232 10 22C10 22.1769 10.0702 22.3464 10.1953 22.4714C10.3203 22.5965 10.4899 22.6667 10.6667 22.6667H14.6667C14.8435 22.6667 15.013 22.5965 15.1381 22.4714C15.2631 22.3464 15.3333 22.1769 15.3333 22C15.3333 21.8232 15.2631 21.6537 15.1381 21.5286C15.013 21.4036 14.8435 21.3334 14.6667 21.3334Z" fill="url(#paint2_linear_2079_405)"/>
<path id="Vector_4" d="M21.8001 21.3334H17.1335C16.9567 21.3334 16.7871 21.4036 16.6621 21.5286C16.537 21.6537 16.4668 21.8232 16.4668 22C16.4668 22.1769 16.537 22.3464 16.6621 22.4714C16.7871 22.5965 16.9567 22.6667 17.1335 22.6667H21.8001C21.9769 22.6667 22.1465 22.5965 22.2715 22.4714C22.3966 22.3464 22.4668 22.1769 22.4668 22C22.4668 21.8232 22.3966 21.6537 22.2715 21.5286C22.1465 21.4036 21.9769 21.3334 21.8001 21.3334Z" fill="url(#paint3_linear_2079_405)"/>
<path id="Vector_5" d="M22.4671 18.6666H17.8005C17.6236 18.6666 17.4541 18.7369 17.3291 18.8619C17.204 18.9869 17.1338 19.1565 17.1338 19.3333C17.1338 19.5101 17.204 19.6797 17.3291 19.8047C17.4541 19.9297 17.6236 20 17.8005 20H22.4671C22.6439 20 22.8135 19.9297 22.9385 19.8047C23.0636 19.6797 23.1338 19.5101 23.1338 19.3333C23.1338 19.1565 23.0636 18.9869 22.9385 18.8619C22.8135 18.7369 22.6439 18.6666 22.4671 18.6666Z" fill="url(#paint4_linear_2079_405)"/>
<path id="Vector_6" d="M22.4934 17.3334C22.298 14.986 21.6601 12.6968 20.6134 10.5867C19.6107 8.67986 18.1659 7.04083 16.4 5.80671L18 2.28004C18.0516 2.17464 18.0745 2.0575 18.0663 1.94044C18.0581 1.82338 18.0191 1.71056 17.9534 1.61338C17.8927 1.52812 17.8128 1.45835 17.7201 1.40971C17.6275 1.36106 17.5247 1.33491 17.42 1.33338H6.53336C6.42129 1.3331 6.31096 1.36108 6.21256 1.41473C6.11416 1.46838 6.03088 1.54598 5.97041 1.64034C5.90994 1.73469 5.87424 1.84278 5.8666 1.95459C5.85895 2.0664 5.87962 2.17833 5.9267 2.28004L7.56003 5.82004C5.80701 7.05533 4.37215 8.68897 3.37336 10.5867C1.94003 13.2534 1.49336 16.5134 1.37336 18.7734C1.35371 19.1042 1.4028 19.4356 1.51754 19.7465C1.63228 20.0574 1.81018 20.3413 2.04003 20.58C2.2816 20.8147 2.56764 20.9986 2.88134 21.1212C3.19503 21.2437 3.53005 21.3022 3.8667 21.2934H8.00003V20H3.81336C3.66249 19.9996 3.51326 19.9686 3.37464 19.909C3.23602 19.8495 3.11087 19.7625 3.0067 19.6534C2.90237 19.5451 2.82179 19.4162 2.77013 19.275C2.71847 19.1338 2.69687 18.9834 2.7067 18.8334C2.80003 17.0934 3.1667 13.78 4.5467 11.2C5.51952 9.35144 6.95805 7.78882 8.72003 6.66671H9.3867C8.93493 7.29168 8.51871 7.9416 8.14003 8.61338C7.75434 9.3282 7.42662 10.0728 7.16003 10.84L8.07336 11.4534C8.3432 10.6574 8.67534 9.88387 9.0667 9.14004C9.54727 8.27515 10.0933 7.4483 10.7 6.66671H11.3667C11.8139 7.73563 12.1296 8.85495 12.3067 10C12.4515 10.8501 12.5229 11.7111 12.52 12.5734L13.5734 11.8334C13.544 11.1629 13.4728 10.4949 13.36 9.83337C13.1812 8.75217 12.8953 7.6914 12.5067 6.66671H13.0267L13.6334 5.33338H8.8067L7.57336 2.66671H16.38L14.7134 6.31338C14.9991 6.4664 15.2731 6.6402 15.5334 6.83338C17.1668 7.96031 18.5064 9.46224 19.44 11.2134C20.3752 13.1335 20.9556 15.2068 21.1534 17.3334H22.4934Z" fill="url(#paint5_linear_2079_405)"/>
</g>
<defs>
<linearGradient id="paint0_linear_2079_405" x1="11.7331" y1="18.6666" x2="11.7331" y2="20" gradientUnits="userSpaceOnUse">
<stop stop-color="#6CAFFF"/>
<stop offset="1" stop-color="#0053B4"/>
</linearGradient>
<linearGradient id="paint1_linear_2079_405" x1="13.027" y1="16" x2="13.027" y2="17.3333" gradientUnits="userSpaceOnUse">
<stop stop-color="#6CAFFF"/>
<stop offset="1" stop-color="#0053B4"/>
</linearGradient>
<linearGradient id="paint2_linear_2079_405" x1="12.6667" y1="21.3334" x2="12.6667" y2="22.6667" gradientUnits="userSpaceOnUse">
<stop stop-color="#6CAFFF"/>
<stop offset="1" stop-color="#0053B4"/>
</linearGradient>
<linearGradient id="paint3_linear_2079_405" x1="19.4668" y1="21.3334" x2="19.4668" y2="22.6667" gradientUnits="userSpaceOnUse">
<stop stop-color="#6CAFFF"/>
<stop offset="1" stop-color="#0053B4"/>
</linearGradient>
<linearGradient id="paint4_linear_2079_405" x1="20.1338" y1="18.6666" x2="20.1338" y2="20" gradientUnits="userSpaceOnUse">
<stop stop-color="#6CAFFF"/>
<stop offset="1" stop-color="#0053B4"/>
</linearGradient>
<linearGradient id="paint5_linear_2079_405" x1="11.9313" y1="1.33337" x2="11.9313" y2="21.2942" gradientUnits="userSpaceOnUse">
<stop stop-color="#6CAFFF"/>
<stop offset="1" stop-color="#0053B4"/>
</linearGradient>
<clipPath id="clip0_2079_405">
<rect width="24" height="24" fill="white"/>
</clipPath>
</defs>
</svg>
