<svg width="24" height="24" viewBox="0 0 24 24" fill="none" xmlns="http://www.w3.org/2000/svg">
<g id="material-symbols-light:touch-app-outline">
<path id="Vector" d="M11.1672 21C10.6239 21 10.1063 20.8874 9.61425 20.662C9.12292 20.436 8.71625 20.1077 8.39425 19.677L3.65625 13.406L3.91925 13.117C4.08592 12.9337 4.28392 12.8217 4.51325 12.781C4.74325 12.7397 4.96192 12.7797 5.16925 12.901L8.19225 14.392V6.77004C8.19225 6.62871 8.24025 6.51004 8.33625 6.41404C8.43225 6.31804 8.55125 6.27004 8.69325 6.27004C8.83525 6.27004 8.95492 6.31804 9.05225 6.41404C9.14958 6.51004 9.19825 6.62871 9.19825 6.77004V16.09L5.61925 14.32L9.25825 19.126C9.48625 19.422 9.76958 19.642 10.1082 19.786C10.4462 19.9294 10.7996 20.001 11.1683 20.001H15.4812C16.1852 20.001 16.7809 19.7604 17.2682 19.279C17.7562 18.797 18.0002 18.204 18.0002 17.5V13.962C18.0002 13.5587 17.8636 13.2207 17.5903 12.948C17.3182 12.6747 16.9806 12.538 16.5772 12.538H11.9672V11.538H16.5772C17.2506 11.538 17.8226 11.7737 18.2932 12.245C18.7646 12.7164 19.0002 13.2887 19.0002 13.962V17.499C19.0002 18.4717 18.6556 19.2984 17.9662 19.979C17.2769 20.6597 16.4486 21 15.4812 21H11.1672ZM5.23325 8.77004C5.05458 8.46671 4.91992 8.14671 4.82925 7.81004C4.73792 7.47271 4.69225 7.12604 4.69225 6.77004C4.69225 5.65538 5.08058 4.71004 5.85725 3.93404C6.63392 3.15804 7.57892 2.76971 8.69225 2.76904C9.80625 2.76904 10.7516 3.15738 11.5282 3.93404C12.3042 4.71004 12.6923 5.65438 12.6923 6.76704C12.6923 7.12904 12.6469 7.47771 12.5562 7.81304C12.4649 8.14771 12.3303 8.46638 12.1523 8.76904L11.2922 8.26904C11.4256 8.03571 11.5256 7.79838 11.5922 7.55704C11.6589 7.31571 11.6923 7.05304 11.6923 6.76904C11.6923 5.93571 11.4006 5.22738 10.8173 4.64404C10.2339 4.06071 9.52558 3.76938 8.69225 3.77004C7.85892 3.77004 7.15058 4.06171 6.56725 4.64504C5.98392 5.22838 5.69225 5.93671 5.69225 6.77004C5.69225 7.05338 5.72558 7.31604 5.79225 7.55804C5.85892 7.80004 5.95892 8.03738 6.09225 8.27004L5.23325 8.77004Z" fill="url(#paint0_linear_2079_458)"/>
</g>
<defs>
<linearGradient id="paint0_linear_2079_458" x1="11.3282" y1="2.76904" x2="11.3282" y2="21" gradientUnits="userSpaceOnUse">
<stop stop-color="#6CAFFF"/>
<stop offset="1" stop-color="#0053B4"/>
</linearGradient>
</defs>
</svg>
