<svg width="24" height="24" viewBox="0 0 24 24" fill="none" xmlns="http://www.w3.org/2000/svg">
<g id="material-symbols-light:swap-calls">
<path id="Vector" d="M6.308 18L3 14.692L3.708 13.973L5.808 16.073V8.36504C5.808 7.43171 6.13233 6.64071 6.781 5.99204C7.42967 5.34338 8.22067 5.01904 9.154 5.01904C10.0873 5.01904 10.8783 5.34338 11.527 5.99204C12.1757 6.64071 12.5 7.43171 12.5 8.36504V14.654C12.5 15.3067 12.728 15.8607 13.184 16.316C13.6393 16.772 14.1933 17 14.846 17C15.4987 17 16.053 16.772 16.509 16.316C16.9643 15.8607 17.192 15.3067 17.192 14.654V6.94604L15.092 9.04604L14.385 8.32604L17.692 5.01904L21 8.32704L20.292 9.04704L18.192 6.94704V14.654C18.192 15.5874 17.8677 16.3784 17.219 17.027C16.5703 17.6757 15.7793 18 14.846 18C13.9127 18 13.1217 17.6757 12.473 17.027C11.8243 16.3784 11.5 15.5874 11.5 14.654V8.36504C11.5 7.71304 11.272 7.15904 10.816 6.70304C10.3607 6.24704 9.80667 6.01904 9.154 6.01904C8.50133 6.01904 7.947 6.24704 7.491 6.70304C7.03567 7.15904 6.808 7.71304 6.808 8.36504V16.073L8.908 13.973L9.615 14.693L6.308 18Z" fill="url(#paint0_linear_2079_395)"/>
</g>
<defs>
<linearGradient id="paint0_linear_2079_395" x1="12" y1="5.01904" x2="12" y2="18" gradientUnits="userSpaceOnUse">
<stop stop-color="#6CAFFF"/>
<stop offset="1" stop-color="#0053B4"/>
</linearGradient>
</defs>
</svg>
