<svg width="26" height="31" viewBox="0 0 26 31" fill="none" xmlns="http://www.w3.org/2000/svg">
<g id="Frame 4" clip-path="url(#clip0_2143_625)">
<path id="Vector 3" d="M2.21351 23.1457C2.13932 23.1799 2.0918 23.2541 2.0918 23.3357V30.0394C2.0918 30.1716 2.20562 30.2721 2.3349 30.2448C9.93547 28.6375 27.5588 21.62 22.2296 14.1222C21.6898 13.3629 4.08033 22.2865 2.21351 23.1457Z" fill="#E0C224"/>
<path id="Vector 5" d="M2.24613 11.3636C8.81113 8.687 16.4875 7.25105 20.9097 11.1603C21.0039 11.2436 20.9544 11.3921 20.8122 11.4548L2.40352 19.5735C2.25317 19.6398 2.0918 19.5726 2.0918 19.4436L2.0918 11.5577C2.0918 11.4794 2.15353 11.4013 2.24613 11.3636Z" fill="#00326D"/>
<path id="Vector 4" d="M2.0918 2.89503C5.26151 -0.429571 11.7514 0.0199244 13.871 3.0126C14.4763 3.86722 13.7625 4.99529 12.6874 5.38299C11.2123 5.91491 8.55973 6.8417 2.0918 9.13637L2.0918 2.89503Z" fill="#00326D"/>
</g>
<defs>
<clipPath id="clip0_2143_625">
<rect width="25.5176" height="30.295" fill="white"/>
</clipPath>
</defs>
</svg>
