<svg width="42" height="41" viewBox="0 0 42 41" fill="none" xmlns="http://www.w3.org/2000/svg">
<g id="svg1296660704">
<path id="Vector" d="M15.7615 12.1701C15.6472 11.9181 15.3952 11.7602 15.1214 11.7602C14.8492 11.7602 14.5972 11.9181 14.483 12.1701L12.1596 17.2001L7.12965 19.5185C6.87765 19.6327 6.71973 19.8847 6.71973 20.1619C6.71973 20.4408 6.87765 20.6877 7.12965 20.802L12.1596 23.1254L14.478 28.1503C14.5922 28.4006 14.8442 28.5602 15.118 28.5602C15.3902 28.5602 15.6422 28.4006 15.7564 28.1503L18.0799 23.1204L23.1098 20.7969C23.3601 20.6827 23.5197 20.4307 23.5197 20.1585C23.5197 19.8847 23.3601 19.6327 23.1098 19.5185L18.0849 17.2001L15.7615 12.1701Z" fill="#2EC538"/>
<path id="Vector_2" opacity="0.4" d="M23.8481 10.448L26.3211 9.52068L27.2484 7.04772C27.3223 6.85116 27.5105 6.72012 27.7205 6.72012C27.9305 6.72012 28.1187 6.85116 28.1926 7.04772L29.1199 9.52068L31.5929 10.448C31.7895 10.522 31.9205 10.7101 31.9205 10.9201C31.9205 11.1301 31.7895 11.3183 31.5929 11.3922L29.1199 12.3196L28.1926 14.7925C28.1187 14.9891 27.9305 15.1201 27.7205 15.1201C27.5105 15.1201 27.3223 14.9891 27.2484 14.7925L26.3211 12.3196L23.8481 11.3922C23.6515 11.3183 23.5205 11.1301 23.5205 10.9201C23.5205 10.7101 23.6515 10.522 23.8481 10.448Z" fill="#2EC538"/>
<path id="Vector_3" opacity="0.4" d="M26.8805 26.8799L23.9136 27.9938C23.6784 28.0828 23.5205 28.3079 23.5205 28.5599C23.5205 28.8119 23.6784 29.037 23.9136 29.1261L26.8805 30.2399L27.9943 33.2068C28.0834 33.442 28.3085 33.5999 28.5605 33.5999C28.8125 33.5999 29.0376 33.442 29.1267 33.2068L30.2405 30.2399L33.2074 29.1261C33.4426 29.037 33.6005 28.8119 33.6005 28.5599C33.6005 28.3079 33.4426 28.0828 33.2074 27.9938L30.2405 26.8799L29.1267 23.913C29.0376 23.6778 28.8125 23.5199 28.5605 23.5199C28.3085 23.5199 28.0834 23.6778 27.9943 23.913L26.8805 26.8799Z" fill="#2EC538"/>
</g>
</svg>
